<svg xmlns="http://www.w3.org/2000/svg" viewBox="0 0 24 24" fill="none" stroke="#4f46e5" stroke-width="2" stroke-linecap="round" stroke-linejoin="round">
  <circle cx="12" cy="12" r="10" fill="#eef2ff"/>
  <path d="M12 10a2 2 0 1 0 0-4 2 2 0 0 0 0 4Z" fill="#4f46e5"/>
  <path d="M17.5 13a1.5 1.5 0 1 0 0-3 1.5 1.5 0 0 0 0 3Z" fill="#4f46e5"/>
  <path d="M6.5 13a1.5 1.5 0 1 0 0-3 1.5 1.5 0 0 0 0 3Z" fill="#4f46e5"/>
  <path d="M12 18c2.5 0 4-1.5 4-3 0-1.5-1.5-2-4-2s-4 .5-4 2c0 1.5 1.5 3 4 3Z" fill="#4f46e5"/>
</svg>
